<?xml version="1.0" encoding="UTF-8" standalone="no"?>
<!DOCTYPE svg PUBLIC "-//W3C//DTD SVG 1.1//EN" "http://www.w3.org/Graphics/SVG/1.1/DTD/svg11.dtd">
<svg width="100%" height="100%" viewBox="0 0 6 6" version="1.1" xmlns="http://www.w3.org/2000/svg" xmlns:xlink="http://www.w3.org/1999/xlink" xml:space="preserve" xmlns:serif="http://www.serif.com/" style="fill-rule:evenodd;clip-rule:evenodd;stroke-linejoin:round;stroke-miterlimit:2;">
    <g transform="matrix(0.333333,0,0,0.333333,0,0)">
        <g transform="matrix(1.20604,-1.20604,1.20604,1.20604,-15.3744,-0.394683)">
            <g transform="matrix(0.449367,0,0,0.449367,1.18401,7.57133)">
                <path d="M3.295,14.135C2.371,14.135 1.621,13.385 1.621,12.461C1.621,11.537 2.371,10.787 3.295,10.787L14.331,10.787L14.331,14.135L3.295,14.135ZM3.816,11.94C3.529,11.652 3.062,11.652 2.774,11.94C2.487,12.227 2.487,12.694 2.774,12.982C3.062,13.27 3.529,13.27 3.816,12.982C4.104,12.694 4.104,12.227 3.816,11.94Z"/>
            </g>
            <g transform="matrix(1,0,0,1,-0.10596,-0.0529801)">
                <path d="M10.078,13.976C9.81,14.474 9.283,14.813 8.678,14.813C7.801,14.813 7.089,14.101 7.089,13.224C7.089,12.347 7.801,11.634 8.678,11.634C9.283,11.634 9.81,11.973 10.078,12.472L8.678,12.472L8.678,13.976L10.078,13.976Z"/>
            </g>
        </g>
    </g>
</svg>
